mtllib tetrahedron.mtl
o Tetrahedron
v -1.000000 1.000000 1.000000
v -1.000000 -1.000000 -1.000000
v 1.000000 -1.000000 1.000000
v 1.000000 1.000000 -1.000000
vt 0.000000 0.000000
vt 1.000000 0.000000
vt 1.000000 1.000000
vt 0.000000 0.000000
vt 1.000000 0.000000
vt 0.000000 0.000000
vt 1.000000 1.000000
vt 1.000000 1.000000
vn 0.5774 0.5774 0.5774
vn -0.5774 0.5774 -0.5774
vn -0.5774 -0.5774 0.5774
vn 0.5774 -0.5774 -0.5774
usemtl Red
s off
f 3/1/1 4/2/1 1/3/1
usemtl Cyan
f 4/4/2 2/5/2 1/3/2
usemtl Green
f 1/6/3 2/5/3 3/7/3
usemtl Orange
f 3/1/4 2/5/4 4/8/4
