{
    "asset" : {
        "generator" : "Khronos glTF Blender I/O v1.5.15",
        "version" : "2.0"
    },
    "extensionsUsed" : [
        "KHR_lights_punctual"
    ],
    "extensionsRequired" : [
        "KHR_lights_punctual"
    ],
    "extensions" : {
        "KHR_lights_punctual" : {
            "lights" : [
                {
                    "color" : [
                        1,
                        1,
                        1
                    ],
                    "intensity" : 1,
                    "type" : "directional",
                    "name" : "Sun"
                }
            ]
        }
    },
    "scene" : 0,
    "scenes" : [
        {
            "name" : "Scene",
            "nodes" : [
                0,
                2,
                3,
                5
            ]
        }
    ],
    "nodes" : [
        {
            "mesh" : 0,
            "name" : "tetrahedron",
            "rotation" : [
                0,
                -1,
                0,
                0
            ]
        },
        {
            "camera" : 0,
            "name" : "Camera_Orientation",
            "rotation" : [
                -0.7071067690849304,
                0,
                0,
                0.7071067690849304
            ]
        },
        {
            "children" : [
                1
            ],
            "name" : "Camera",
            "rotation" : [
                0.483536034822464,
                0.33687159419059753,
                -0.20870360732078552,
                0.7804827094078064
            ],
            "translation" : [
                5,
                3,
                4
            ]
        },
        {
            "name" : "Target"
        },
        {
            "extensions" : {
                "KHR_lights_punctual" : {
                    "light" : 0
                }
            },
            "name" : "Sun_Orientation",
            "rotation" : [
               -0.5773502691896258,
               -0.5773502691896258,
               0.5773502691896258,
               0.0
            ],
            "translation" : [
                5,
                5,
                5
            ]
        },
        {
            "children" : [
                4
            ],
            "name" : "Sun",
            "translation" : [
                5,
                5,
                5
            ]
        }
    ],
    "cameras" : [
        {
            "name" : "Camera",
            "perspective" : {
                "aspectRatio" : 1.7777777777777777,
                "yfov" : 0.39959652046304894,
                "zfar" : 100,
                "znear" : 0.10000000149011612
            },
            "type" : "perspective"
        }
    ],
    "animations" : [
        {
            "channels" : [
                {
                    "sampler" : 0,
                    "target" : {
                        "node" : 0,
                        "path" : "translation"
                    }
                },
                {
                    "sampler" : 1,
                    "target" : {
                        "node" : 0,
                        "path" : "rotation"
                    }
                },
                {
                    "sampler" : 2,
                    "target" : {
                        "node" : 0,
                        "path" : "scale"
                    }
                }
            ],
            "name" : "TranslateOrientScaling",
            "samplers" : [
                {
                    "input" : 16,
                    "interpolation" : "LINEAR",
                    "output" : 17
                },
                {
                    "input" : 16,
                    "interpolation" : "LINEAR",
                    "output" : 18
                },
                {
                    "input" : 16,
                    "interpolation" : "LINEAR",
                    "output" : 19
                }
            ]
        }
    ],
    "materials" : [
        {
            "doubleSided" : true,
            "name" : "Cyan",
            "normalTexture" : {
                "index" : 0
            },
            "pbrMetallicRoughness" : {
                "baseColorFactor" : [
                    0,
                    0.75,
                    0.75,
                    1
                ],
                "baseColorTexture" : {
                    "index" : 1
                },
                "metallicFactor" : 0,
                "roughnessFactor" : 0.4000000059604645
            }
        },
        {
            "doubleSided" : false,
            "name" : "Orange",
            "normalTexture" : {
                "index" : 2
            },
            "pbrMetallicRoughness" : {
                "baseColorFactor" : [
                    0.75,
                    0.25,
                    0,
                    1
                ],
                "baseColorTexture" : {
                    "index" : 3
                },
                "metallicFactor" : 0,
                "roughnessFactor" : 0.4000000059604645
            }
        },
        {
            "doubleSided" : false,
            "name" : "Green",
            "normalTexture" : {
                "index" : 4
            },
            "pbrMetallicRoughness" : {
                "baseColorFactor" : [
                    0,
                    0.25,
                    0,
                    1
                ],
                "baseColorTexture" : {
                    "index" : 5
                },
                "metallicFactor" : 0,
                "roughnessFactor" : 0.4000000059604645
            }
        },
        {
            "doubleSided" : false,
            "name" : "Red",
            "normalTexture" : {
                "index" : 6
            },
            "pbrMetallicRoughness" : {
                "baseColorFactor" : [
                    0.75,
                    0,
                    0,
                    1
                ],
                "baseColorTexture" : {
                    "index" : 7
                },
                "metallicFactor" : 0,
                "roughnessFactor" : 0.4000000059604645
            }
        }
    ],
    "meshes" : [
        {
            "name" : "Cube",
            "primitives" : [
                {
                    "attributes" : {
                        "POSITION" : 0,
                        "NORMAL" : 1,
                        "TEXCOORD_0" : 2
                    },
                    "indices" : 3,
                    "material" : 0
                },
                {
                    "attributes" : {
                        "POSITION" : 4,
                        "NORMAL" : 5,
                        "TEXCOORD_0" : 6
                    },
                    "indices" : 7,
                    "material" : 1
                },
                {
                    "attributes" : {
                        "POSITION" : 8,
                        "NORMAL" : 9,
                        "TEXCOORD_0" : 10
                    },
                    "indices" : 11,
                    "material" : 2
                },
                {
                    "attributes" : {
                        "POSITION" : 12,
                        "NORMAL" : 13,
                        "TEXCOORD_0" : 14
                    },
                    "indices" : 15,
                    "material" : 3
                }
            ]
        }
    ],
    "textures" : [
        {
            "sampler" : 0,
            "source" : 0
        },
        {
            "sampler" : 0,
            "source" : 1
        },
        {
            "sampler" : 0,
            "source" : 0
        },
        {
            "sampler" : 0,
            "source" : 1
        },
        {
            "sampler" : 0,
            "source" : 0
        },
        {
            "sampler" : 0,
            "source" : 1
        },
        {
            "sampler" : 0,
            "source" : 0
        },
        {
            "sampler" : 0,
            "source" : 1
        }
    ],
    "images" : [
        {
            "bufferView" : 4,
            "mimeType" : "image/png",
            "name" : "gridnormals"
        },
        {
            "bufferView" : 5,
            "mimeType" : "image/png",
            "name" : "ripples"
        }
    ],
    "accessors" : [
        {
            "bufferView" : 0,
            "componentType" : 5126,
            "count" : 27,
            "max" : [
                0.97718745470047,
                0.9856512546539307,
                0.97718745470047
            ],
            "min" : [
                -0.9856512546539307,
                -0.97718745470047,
                -0.9856512546539307
            ],
            "type" : "VEC3"
        },
        {
            "bufferView" : 1,
            "componentType" : 5126,
            "count" : 27,
            "type" : "VEC3"
        },
        {
            "bufferView" : 2,
            "componentType" : 5126,
            "count" : 27,
            "type" : "VEC2"
        },
        {
            "bufferView" : 3,
            "componentType" : 5123,
            "count" : 39,
            "type" : "SCALAR"
        },
        {
            "bufferView" : 6,
            "componentType" : 5126,
            "count" : 27,
            "max" : [
                0.9856512546539307,
                0.9771875739097595,
                0.97718745470047
            ],
            "min" : [
                -0.97718745470047,
                -0.9856512546539307,
                -0.9856512546539307
            ],
            "type" : "VEC3"
        },
        {
            "bufferView" : 7,
            "componentType" : 5126,
            "count" : 27,
            "type" : "VEC3"
        },
        {
            "bufferView" : 8,
            "componentType" : 5126,
            "count" : 27,
            "type" : "VEC2"
        },
        {
            "bufferView" : 9,
            "componentType" : 5123,
            "count" : 39,
            "type" : "SCALAR"
        },
        {
            "bufferView" : 10,
            "componentType" : 5126,
            "count" : 27,
            "max" : [
                0.97718745470047,
                0.97718745470047,
                0.9856512546539307
            ],
            "min" : [
                -0.9856512546539307,
                -0.9856512546539307,
                -0.97718745470047
            ],
            "type" : "VEC3"
        },
        {
            "bufferView" : 11,
            "componentType" : 5126,
            "count" : 27,
            "type" : "VEC3"
        },
        {
            "bufferView" : 12,
            "componentType" : 5126,
            "count" : 27,
            "type" : "VEC2"
        },
        {
            "bufferView" : 13,
            "componentType" : 5123,
            "count" : 39,
            "type" : "SCALAR"
        },
        {
            "bufferView" : 14,
            "componentType" : 5126,
            "count" : 27,
            "max" : [
                0.9856512546539307,
                0.9856512546539307,
                0.9856512546539307
            ],
            "min" : [
                -0.97718745470047,
                -0.97718745470047,
                -0.97718745470047
            ],
            "type" : "VEC3"
        },
        {
            "bufferView" : 15,
            "componentType" : 5126,
            "count" : 27,
            "type" : "VEC3"
        },
        {
            "bufferView" : 16,
            "componentType" : 5126,
            "count" : 27,
            "type" : "VEC2"
        },
        {
            "bufferView" : 17,
            "componentType" : 5123,
            "count" : 39,
            "type" : "SCALAR"
        },
        {
            "bufferView" : 18,
            "componentType" : 5126,
            "count" : 240,
            "max" : [
                10
            ],
            "min" : [
                0.041666666666666664
            ],
            "type" : "SCALAR"
        },
        {
            "bufferView" : 19,
            "componentType" : 5126,
            "count" : 240,
            "type" : "VEC3"
        },
        {
            "bufferView" : 20,
            "componentType" : 5126,
            "count" : 240,
            "type" : "VEC4"
        },
        {
            "bufferView" : 21,
            "componentType" : 5126,
            "count" : 240,
            "type" : "VEC3"
        }
    ],
    "bufferViews" : [
        {
            "buffer" : 0,
            "byteLength" : 324,
            "byteOffset" : 0
        },
        {
            "buffer" : 0,
            "byteLength" : 324,
            "byteOffset" : 324
        },
        {
            "buffer" : 0,
            "byteLength" : 216,
            "byteOffset" : 648
        },
        {
            "buffer" : 0,
            "byteLength" : 78,
            "byteOffset" : 864
        },
        {
            "buffer" : 0,
            "byteLength" : 2510,
            "byteOffset" : 944
        },
        {
            "buffer" : 0,
            "byteLength" : 395022,
            "byteOffset" : 3456
        },
        {
            "buffer" : 0,
            "byteLength" : 324,
            "byteOffset" : 398480
        },
        {
            "buffer" : 0,
            "byteLength" : 324,
            "byteOffset" : 398804
        },
        {
            "buffer" : 0,
            "byteLength" : 216,
            "byteOffset" : 399128
        },
        {
            "buffer" : 0,
            "byteLength" : 78,
            "byteOffset" : 399344
        },
        {
            "buffer" : 0,
            "byteLength" : 324,
            "byteOffset" : 399424
        },
        {
            "buffer" : 0,
            "byteLength" : 324,
            "byteOffset" : 399748
        },
        {
            "buffer" : 0,
            "byteLength" : 216,
            "byteOffset" : 400072
        },
        {
            "buffer" : 0,
            "byteLength" : 78,
            "byteOffset" : 400288
        },
        {
            "buffer" : 0,
            "byteLength" : 324,
            "byteOffset" : 400368
        },
        {
            "buffer" : 0,
            "byteLength" : 324,
            "byteOffset" : 400692
        },
        {
            "buffer" : 0,
            "byteLength" : 216,
            "byteOffset" : 401016
        },
        {
            "buffer" : 0,
            "byteLength" : 78,
            "byteOffset" : 401232
        },
        {
            "buffer" : 0,
            "byteLength" : 960,
            "byteOffset" : 401312
        },
        {
            "buffer" : 0,
            "byteLength" : 2880,
            "byteOffset" : 402272
        },
        {
            "buffer" : 0,
            "byteLength" : 3840,
            "byteOffset" : 405152
        },
        {
            "buffer" : 0,
            "byteLength" : 2880,
            "byteOffset" : 408992
        }
    ],
    "samplers" : [
        {
            "magFilter" : 9729,
            "minFilter" : 9987
        }
    ],
    "buffers" : [
        {
            "byteLength" : 411872,
            "uri" : "data:application/octet-stream;base64,"
        }
    ]
}
